<?xml version="1.0" encoding="UTF-8" standalone="no"?>
<!-- Created with Inkscape (http://www.inkscape.org/) -->

<svg
   width="137.05417mm"
   height="158.25648mm"
   viewBox="0 0 137.05417 158.25647"
   version="1.1"
   id="svg5"
   xml:space="preserve"
   inkscape:version="1.2.2 (b0a8486541, 2022-12-01)"
   sodipodi:docname="tinyplot-sticker.svg"
   xmlns:inkscape="http://www.inkscape.org/namespaces/inkscape"
   xmlns:sodipodi="http://sodipodi.sourceforge.net/DTD/sodipodi-0.dtd"
   xmlns="http://www.w3.org/2000/svg"
   xmlns:svg="http://www.w3.org/2000/svg"><sodipodi:namedview
     id="namedview7"
     pagecolor="#ffffff"
     bordercolor="#000000"
     borderopacity="0.25"
     inkscape:showpageshadow="2"
     inkscape:pageopacity="0.0"
     inkscape:pagecheckerboard="0"
     inkscape:deskcolor="#d1d1d1"
     inkscape:document-units="mm"
     showgrid="false"
     inkscape:zoom="1.5340488"
     inkscape:cx="210.87986"
     inkscape:cy="293.34139"
     inkscape:window-width="1920"
     inkscape:window-height="1011"
     inkscape:window-x="0"
     inkscape:window-y="0"
     inkscape:window-maximized="1"
     inkscape:current-layer="g2178" /><defs
     id="defs2" /><g
     inkscape:groupmode="layer"
     id="layer4"
     inkscape:label="sticker"
     style="display:inline"
     transform="translate(-1.994963,0.81188)"
     sodipodi:insensitive="true"><g
       id="g2136"
       transform="translate(5.831091,-162.35966)"><path
         id="path2132"
         style="fill:#5195a3;fill-opacity:1;stroke-width:1.11707;stroke-linecap:round;stroke-linejoin:round;stroke-opacity:0.703159;paint-order:fill markers stroke"
         inkscape:transform-center-y="-4.7280796e-06"
         d="m 64.690955,161.54778 -68.5270823,39.56399 v 79.12851 l 68.5270823,39.56399 68.527085,-39.56399 v -79.12851 z m 0,3.25045 65.712265,37.93877 v 75.87805 L 64.690955,316.55434 -1.0213121,278.61505 V 202.737 Z" /><path
         sodipodi:type="star"
         style="fill:#fffaf0;fill-opacity:1;stroke-width:2.5;stroke-linecap:round;stroke-linejoin:round;stroke-opacity:0.703159;paint-order:fill markers stroke"
         id="path2134"
         inkscape:flatsided="true"
         sodipodi:sides="6"
         sodipodi:cx="154.58778"
         sodipodi:cy="-11.049107"
         sodipodi:r1="177.08917"
         sodipodi:r2="153.36372"
         sodipodi:arg1="0.52359878"
         sodipodi:arg2="1.0471976"
         inkscape:rounded="0"
         inkscape:randomized="0"
         d="M 307.95151,77.49548 154.58778,166.04007 1.2240614,77.495479 l 8e-7,-177.089172 153.3637178,-88.544587 153.36373,88.544588 z"
         transform="matrix(0.42847384,0,0,0.42847384,-1.5460292,245.41031)"
         inkscape:transform-center-y="5.43178e-06"
         inkscape:transform-center-x="-4.2202613e-06" /></g></g><g
     inkscape:groupmode="layer"
     id="layer2"
     inkscape:label="logo"
     style="display:inline"
     transform="translate(-24.881102,-12.334088)"><g
       id="g2178"
       transform="translate(6.035788,8.5661767)"><ellipse
         style="fill:#5195a3;fill-opacity:1;stroke:none;stroke-width:8.32514;stroke-linecap:round;stroke-dasharray:none;stroke-opacity:1;paint-order:fill markers stroke"
         id="ellipse2138"
         cx="87.372398"
         cy="111.75066"
         rx="38.855217"
         ry="3.3776116" /><path
         id="path2140"
         style="color:#000000;fill:#000022;fill-opacity:1;stroke-width:0.865561;stroke-linecap:round;-inkscape-stroke:none;paint-order:fill markers stroke"
         d="M 86.928497 20.720882 A 3.4622451 3.4622451 0 0 0 83.466176 24.183203 L 83.466176 26.816117 A 6.7635878 5.0790698 0 0 0 80.133563 31.188977 L 80.133563 36.503898 L 71.958868 36.503898 L 71.958868 34.27561 A 3.4622451 3.4622451 0 0 0 68.497064 30.813289 A 3.4622451 3.4622451 0 0 0 65.034743 34.27561 L 65.034743 36.503898 L 60.247438 36.503898 L 60.247438 79.948274 L 57.333921 79.948274 A 3.4622451 3.4622451 0 0 0 53.8716 83.410078 A 3.4622451 3.4622451 0 0 0 57.333921 86.872399 L 63.549045 86.872399 L 60.443808 97.673291 L 57.266741 108.72481 C 56.673689 110.78729 57.870254 112.95163 59.932729 113.54467 C 61.995382 114.13777 64.159767 112.93937 64.752589 110.87662 L 67.929656 99.825614 L 68.458306 97.98645 L 106.42912 97.98645 L 106.95777 99.825614 L 110.13432 110.87662 C 110.72714 112.93937 112.89204 114.13777 114.95469 113.54467 C 117.01716 112.95163 118.21321 110.78729 117.62016 108.72481 L 114.44361 97.673291 L 111.33838 86.872399 L 116.46054 86.872399 A 3.4622451 3.4622451 0 0 0 119.92287 83.410078 A 3.4622451 3.4622451 0 0 0 116.46054 79.948274 L 113.54754 79.948274 L 113.54754 36.503898 L 108.75972 36.503898 L 108.75972 34.27561 A 3.4622451 3.4622451 0 0 0 105.29792 30.813289 A 3.4622451 3.4622451 0 0 0 101.8356 34.27561 L 101.8356 36.503898 L 93.660902 36.503898 L 93.660902 31.188977 A 6.7635878 5.0790698 0 0 0 90.390818 26.839888 L 90.390818 24.183203 A 3.4622451 3.4622451 0 0 0 86.928497 20.720882 z M 86.854599 30.871683 A 2.1197543 2.1197543 0 0 1 88.974367 32.991451 A 2.1197543 2.1197543 0 0 1 86.854599 35.111218 A 2.1197543 2.1197543 0 0 1 84.734832 32.991451 A 2.1197543 2.1197543 0 0 1 86.854599 30.871683 z M 62.619903 39.117692 L 111.17456 39.117692 L 111.17456 79.948274 L 104.96305 79.948274 L 68.83141 79.948274 L 62.619903 79.948274 L 62.619903 39.117692 z M 71.65346 86.872399 L 83.43517 86.872399 L 83.43517 89.829325 L 83.43517 91.228723 L 83.43517 91.410107 C 83.43517 91.889627 83.82123 92.275687 84.30075 92.275687 L 89.493715 92.275687 C 89.973235 92.275687 90.359295 91.889627 90.359295 91.410107 L 90.359295 91.228723 L 90.359295 89.829325 L 90.359295 86.872399 L 103.23396 86.872399 L 105.51496 94.806799 L 69.372462 94.806799 L 71.65346 86.872399 z M 84.30075 100.47519 C 83.82123 100.47519 83.43517 100.86125 83.43517 101.34077 L 83.43517 102.72621 A 3.4622451 3.4622451 0 0 0 86.897491 106.18853 A 3.4622451 3.4622451 0 0 0 90.359295 102.72621 L 90.359295 101.34077 C 90.359295 100.86125 89.973235 100.47519 89.493715 100.47519 L 84.30075 100.47519 z " /><circle
         style="fill:#15a793;fill-opacity:1;stroke:none;stroke-width:7.17861;stroke-linecap:round;stroke-dasharray:none;stroke-opacity:1;paint-order:fill markers stroke"
         id="circle2154"
         cx="71.751991"
         cy="60.116932"
         r="2.1599679" /><circle
         style="fill:#15a793;fill-opacity:1;stroke:none;stroke-width:7.17861;stroke-linecap:round;stroke-dasharray:none;stroke-opacity:1;paint-order:fill markers stroke"
         id="circle2156"
         cx="70.070763"
         cy="67.194275"
         r="2.1599679" /><circle
         style="fill:#04546b;fill-opacity:1;stroke:none;stroke-width:7.17861;stroke-linecap:round;stroke-dasharray:none;stroke-opacity:1;paint-order:fill markers stroke"
         id="circle2158"
         cx="81.420708"
         cy="61.282822"
         r="2.1599679" /><circle
         style="fill:#f51459;fill-opacity:1;stroke:none;stroke-width:7.76241;stroke-linecap:round;stroke-dasharray:none;stroke-opacity:1;paint-order:fill markers stroke"
         id="circle2160"
         cx="103.1031"
         cy="52.502445"
         r="2.335629" /><circle
         style="fill:#f51459;fill-opacity:1;stroke:none;stroke-width:6.09356;stroke-linecap:round;stroke-dasharray:none;stroke-opacity:1;paint-order:fill markers stroke"
         id="circle2162"
         cx="105.38453"
         cy="66.800583"
         r="1.8334895" /><circle
         style="fill:#f51459;fill-opacity:1;stroke:none;stroke-width:6.09356;stroke-linecap:round;stroke-dasharray:none;stroke-opacity:1;paint-order:fill markers stroke"
         id="circle2164"
         cx="82.368172"
         cy="49.290546"
         r="1.8334895" /><circle
         style="fill:#04546b;fill-opacity:1;stroke:none;stroke-width:6.04902;stroke-linecap:round;stroke-dasharray:none;stroke-opacity:1;paint-order:fill markers stroke"
         id="circle2166"
         cx="91.653069"
         cy="47.029629"
         r="1.8200881" /><circle
         style="fill:#04546b;fill-opacity:1;stroke:none;stroke-width:6.04902;stroke-linecap:round;stroke-dasharray:none;stroke-opacity:1;paint-order:fill markers stroke"
         id="circle2168"
         cx="75.718407"
         cy="47.695984"
         r="1.8200881" /><path
         id="path2170"
         style="color:#000000;fill:#15a793;fill-opacity:1;stroke-width:0.865561;stroke-linecap:round;stroke-linejoin:round;-inkscape-stroke:none;paint-order:fill markers stroke"
         d="M 96.379599 55.502221 L 96.379083 55.502738 C 96.456384 55.50535 96.533172 55.512886 96.609043 55.525476 C 96.533336 55.512935 96.45673 55.504827 96.379599 55.502221 z M 96.60956 55.525476 C 96.68526 55.538059 96.759809 55.555376 96.833319 55.577152 C 96.759801 55.555394 96.685266 55.538038 96.60956 55.525476 z M 97.257065 55.758536 C 97.331761 55.800994 97.403524 55.848493 97.472556 55.899613 C 97.403556 55.848523 97.331723 55.800973 97.257065 55.758536 z M 97.610532 56.011234 C 97.623567 56.022653 97.636542 56.034139 97.649289 56.045857 C 97.63651 56.03411 97.6236 56.02268 97.610532 56.011234 z M 94.95178 56.085131 C 94.907283 56.127991 94.865006 56.173271 94.824139 56.21949 C 94.865079 56.173173 94.907195 56.128076 94.95178 56.085131 z M 97.793467 56.190551 C 97.796652 56.194092 97.799608 56.197843 97.802768 56.201403 C 97.799584 56.197816 97.796677 56.194119 97.793467 56.190551 z M 94.710967 56.356433 C 94.68669 56.388533 94.6632 56.421389 94.640688 56.454618 C 94.637396 56.459477 94.634646 56.464722 94.631386 56.469604 C 94.634695 56.464648 94.637862 56.45955 94.641204 56.454618 C 94.663716 56.42139 94.68669 56.388533 94.710967 56.356433 z M 98.269407 56.996704 C 98.275041 57.011779 98.280537 57.02696 98.285943 57.042179 C 98.28054 57.026972 98.275037 57.011766 98.269407 56.996704 z M 98.345888 57.230281 C 98.350872 57.247782 98.355647 57.265321 98.360357 57.282991 C 98.355649 57.265337 98.350869 57.247766 98.345888 57.230281 z M 98.406349 57.479361 C 98.410202 57.498253 98.414151 57.517142 98.417718 57.536206 C 98.414149 57.517142 98.410203 57.498253 98.406349 57.479361 z M 94.186968 57.578063 C 94.183681 57.59467 94.180744 57.611452 94.177667 57.62819 C 94.180747 57.611427 94.183677 57.594694 94.186968 57.578063 z M 98.449241 57.734643 C 98.462438 57.83416 98.472578 57.935388 98.478696 58.039017 C 98.47258 57.935408 98.462434 57.834141 98.449241 57.734643 z M 98.478696 58.039017 C 98.484125 58.130976 98.486448 58.224607 98.486448 58.31962 C 98.486448 58.55435 98.512212 58.974239 98.571714 59.527815 C 98.512213 58.974239 98.486964 58.554351 98.486964 58.31962 C 98.486964 58.224607 98.484125 58.130976 98.478696 58.039017 z M 94.116689 58.136686 C 94.11128 58.229194 94.10842 58.323738 94.10842 58.419356 C 94.10842 58.422548 94.107925 58.427928 94.107904 58.431241 C 94.108203 58.427066 94.108643 58.423027 94.108937 58.418839 C 94.108937 58.323222 94.11128 58.229194 94.116689 58.136686 z M 94.067079 58.95059 C 94.011893 59.426149 93.901851 60.073022 93.740484 60.581498 C 92.364483 64.84979 91.058152 63.671055 90.397536 63.383911 C 90.386176 63.378811 90.374742 63.374301 90.362912 63.369441 C 90.350952 63.364441 90.338766 63.359045 90.327256 63.354455 L 90.326739 63.357039 C 90.200475 63.310529 90.05086 63.279585 89.865268 63.282625 C 89.313639 63.291725 89.095648 63.555411 88.950596 63.705338 C 88.805543 63.855265 88.715363 63.988274 88.62245 64.132702 C 88.436624 64.421558 88.260734 64.755724 88.056077 65.14556 C 87.646763 65.925235 87.13987 66.918414 86.521286 67.894746 C 85.284121 69.847409 83.672069 71.552815 81.803228 71.61545 C 80.15608 71.670659 79.643086 71.185343 79.065928 70.550398 C 78.77735 70.232929 78.513731 69.853137 78.127484 69.469844 C 77.741234 69.08655 77.11371 68.680745 76.367384 68.680745 C 75.494996 68.680745 74.897413 69.178331 74.400063 69.649161 C 73.902712 70.119993 73.432993 70.665462 72.856488 71.221675 C 71.703484 72.334102 70.186698 73.498671 67.537949 74.006001 C 66.258634 74.259785 66.438364 76.142139 67.742588 76.14954 L 81.780491 76.14954 C 81.885263 76.14954 81.990743 76.147122 82.09675 76.142822 C 82.12085 76.141022 82.144937 76.14007 82.169097 76.139204 C 82.274913 76.134104 82.381191 76.127117 82.487941 76.118017 A 11.947669 16.032365 0 0 0 82.685862 76.09838 C 82.746738 76.0918 82.807716 76.084476 82.868796 76.076676 C 82.882946 76.074976 82.897001 76.073208 82.911171 76.071508 C 82.973387 76.063118 83.03578 76.05382 83.09824 76.04412 A 11.947669 16.032365 0 0 0 83.777785 75.913378 C 83.823985 75.902638 83.870554 75.890702 83.916794 75.879272 A 11.947669 16.032365 0 0 0 84.452679 75.730444 C 84.519629 75.709844 84.58681 75.688008 84.6537 75.665848 A 11.947669 16.032365 0 0 0 85.2702 75.440539 A 11.947669 16.032365 0 0 0 85.754925 75.230216 C 85.837803 75.191787 85.920602 75.151673 86.002972 75.110843 C 86.227148 74.999736 86.449214 74.879466 86.668564 74.750659 C 86.691004 74.737469 86.713364 74.724745 86.735744 74.711385 C 86.738944 74.709485 86.741945 74.7076 86.745045 74.7057 C 86.759875 74.69683 86.774687 74.687312 86.789487 74.678312 C 86.85173 74.640655 86.913772 74.603207 86.975522 74.564107 C 87.055089 74.51373 87.134554 74.461837 87.213234 74.409077 C 87.291909 74.356318 87.369628 74.30247 87.447328 74.24733 C 87.449728 74.24573 87.452263 74.243763 87.454563 74.242163 C 87.529893 74.188604 87.605015 74.134138 87.679355 74.078348 C 87.681355 74.076748 87.683457 74.075297 87.685557 74.073697 C 87.760144 74.017636 87.833728 73.960442 87.907248 73.902132 C 87.909048 73.900732 87.911233 73.899398 87.912933 73.897998 C 87.986694 73.839421 88.059948 73.780037 88.132558 73.719197 C 88.134058 73.717997 88.135192 73.71678 88.136692 73.71558 C 88.209453 73.654548 88.281676 73.591821 88.353216 73.528511 C 88.403726 73.483817 88.453724 73.437915 88.503594 73.392085 C 88.525864 73.371615 88.548634 73.351807 88.570774 73.331107 C 88.571774 73.330207 88.572406 73.329384 88.573358 73.328523 C 88.589008 73.313883 88.604276 73.298325 88.619866 73.283565 C 88.674731 73.231631 88.729671 73.179808 88.783681 73.126468 C 88.853943 73.057091 88.923187 72.986335 88.991937 72.914595 C 88.992472 72.91406 88.993051 72.914017 88.993487 72.913562 C 89.06171 72.842342 89.129399 72.769554 89.196059 72.696004 C 89.196312 72.695722 89.196811 72.695281 89.197092 72.69497 C 89.264029 72.621102 89.329733 72.546388 89.395013 72.470178 C 89.431117 72.428033 89.467403 72.38382 89.503533 72.34047 A 11.947669 16.032365 0 0 0 89.628074 72.189058 C 91.161677 70.29082 92.690579 67.303957 93.535845 62.932775 A 11.947669 16.032365 0 0 0 93.536362 62.931225 C 93.567902 62.768176 93.598229 62.603087 93.627829 62.436165 C 93.656569 62.274118 93.684199 62.110447 93.711029 61.944722 C 93.711929 61.939762 93.712816 61.934636 93.713612 61.929736 C 93.715312 61.920886 93.716046 61.911664 93.717746 61.902864 C 93.743286 61.743777 93.768441 61.583214 93.792161 61.420723 C 93.792995 61.417623 93.793252 61.414521 93.793711 61.411421 C 93.794611 61.405091 93.795429 61.398601 93.796295 61.392301 C 93.908733 60.61831 93.999211 59.803193 94.067079 58.95059 z M 98.622873 59.967065 C 98.661431 60.275493 98.709195 60.614549 98.767051 60.976822 C 98.709158 60.614352 98.66145 60.275641 98.622873 59.967065 z M 98.861619 61.538028 C 99.135156 63.076337 99.580603 64.942237 100.2698 66.723242 C 100.44204 67.168346 100.62837 67.607417 100.82842 68.035823 C 100.62829 67.607282 100.44262 67.168494 100.27032 66.723242 C 99.581187 64.942419 99.135163 63.076242 98.861619 61.538028 z M 100.82842 68.03634 C 100.92849 68.25061 101.03214 68.461945 101.13952 68.67041 C 101.03221 68.462082 100.92843 68.250466 100.82842 68.03634 z M 101.47283 69.285876 C 101.70259 69.688899 101.94789 70.07704 102.20922 70.446012 C 101.9478 70.076936 101.70266 69.689025 101.47283 69.285876 z M 102.20922 70.446529 C 102.47063 70.815604 102.7484 71.165105 103.04328 71.491426 C 102.7485 71.165206 102.47056 70.815478 102.20922 70.446529 z M 103.49854 71.962715 C 103.73277 72.188981 103.97682 72.400767 104.23132 72.596268 C 103.97694 72.400835 103.73267 72.188886 103.49854 71.962715 z M 105.30567 73.287182 C 105.58829 73.435878 105.88203 73.56585 106.18675 73.675272 C 105.88189 73.565797 105.58842 73.435967 105.30567 73.287182 z M 107.46729 73.999283 A 1.0820598 1.0820598 0 0 1 108.37525 75.024544 C 108.36133 74.555593 108.06807 74.096706 107.46729 73.999283 z M 108.37525 75.027644 A 1.0820598 1.0820598 0 0 1 108.35613 75.272591 C 108.37093 75.191782 108.37747 75.109768 108.37525 75.027644 z M 108.35613 75.272591 A 1.0820598 1.0820598 0 0 1 107.30296 76.14954 C 107.91203 76.144449 108.27153 75.734416 108.35613 75.272591 z " /><path
         id="path2172"
         style="color:#000000;fill:#04546b;fill-opacity:1;stroke-width:0.865561;stroke-linecap:round;stroke-linejoin:round;-inkscape-stroke:none;paint-order:fill markers stroke"
         d="M 96.379599 55.502221 C 96.3384 55.500821 96.297082 55.50119 96.255576 55.502738 C 95.592133 55.528438 95.001399 55.922964 94.641204 56.454618 C 94.281011 56.986271 94.108937 57.653899 94.108937 58.418839 C 94.103737 58.492789 94.097681 58.564581 94.092401 58.637947 C 94.092323 58.638561 94.09247 58.639414 94.092401 58.640014 C 94.022811 59.607335 93.922416 60.524122 93.796295 61.392301 C 93.795429 61.398601 93.794611 61.405091 93.793711 61.411421 C 93.793252 61.414521 93.792995 61.417623 93.792161 61.420723 C 93.768441 61.583214 93.743286 61.743777 93.717746 61.902864 C 93.716046 61.911664 93.715312 61.920886 93.713612 61.929736 C 93.712816 61.934636 93.711929 61.939762 93.711029 61.944722 C 93.684199 62.110447 93.656569 62.274118 93.627829 62.436165 C 93.598229 62.603087 93.567902 62.768176 93.536362 62.931225 A 11.947669 16.032365 0 0 1 93.535845 62.932775 C 92.690579 67.303957 91.161677 70.29082 89.628074 72.189058 A 11.947669 16.032365 0 0 1 89.503533 72.34047 C 89.467403 72.38382 89.431117 72.428033 89.395013 72.470178 C 89.329733 72.546388 89.264029 72.621102 89.197092 72.69497 C 89.196811 72.695281 89.196312 72.695722 89.196059 72.696004 C 89.129399 72.769554 89.06171 72.842342 88.993487 72.913562 C 88.993051 72.914017 88.992472 72.91406 88.991937 72.914595 C 88.923187 72.986335 88.853943 73.057091 88.783681 73.126468 C 88.729671 73.179808 88.674731 73.231631 88.619866 73.283565 C 88.604276 73.298325 88.589008 73.313883 88.573358 73.328523 C 88.572406 73.329384 88.571774 73.330207 88.570774 73.331107 C 88.548634 73.351807 88.525864 73.371615 88.503594 73.392085 C 88.453724 73.437915 88.403726 73.483817 88.353216 73.528511 C 88.281676 73.591821 88.209453 73.654548 88.136692 73.71558 C 88.135192 73.71678 88.134058 73.717997 88.132558 73.719197 C 88.059948 73.780037 87.986694 73.839421 87.912933 73.897998 C 87.911233 73.899398 87.909048 73.900732 87.907248 73.902132 C 87.833728 73.960442 87.760144 74.017636 87.685557 74.073697 C 87.683457 74.075297 87.681355 74.076748 87.679355 74.078348 C 87.605015 74.134138 87.529893 74.188604 87.454563 74.242163 C 87.452263 74.243763 87.449728 74.24573 87.447328 74.24733 C 87.369628 74.30247 87.291909 74.356318 87.213234 74.409077 C 87.134554 74.461837 87.055089 74.51373 86.975522 74.564107 C 86.913772 74.603207 86.85173 74.640655 86.789487 74.678312 C 86.774687 74.687312 86.759875 74.69683 86.745045 74.7057 C 86.741945 74.7076 86.738944 74.709485 86.735744 74.711385 C 86.713364 74.724745 86.691004 74.737469 86.668564 74.750659 C 86.449214 74.879466 86.227148 74.999736 86.002972 75.110843 C 85.920602 75.151673 85.837803 75.191787 85.754925 75.230216 A 11.947669 16.032365 0 0 1 85.2702 75.440539 A 11.947669 16.032365 0 0 1 84.6537 75.665848 C 84.58681 75.688008 84.519629 75.709844 84.452679 75.730444 A 11.947669 16.032365 0 0 1 83.916794 75.879272 C 83.870554 75.890702 83.823985 75.902638 83.777785 75.913378 A 11.947669 16.032365 0 0 1 83.09824 76.04412 C 83.03578 76.05382 82.973387 76.063118 82.911171 76.071508 C 82.897001 76.073208 82.882946 76.074976 82.868796 76.076676 C 82.807716 76.084476 82.746738 76.0918 82.685862 76.09838 A 11.947669 16.032365 0 0 1 82.487941 76.118017 C 82.381191 76.127117 82.274913 76.134104 82.169097 76.139204 C 82.144937 76.14007 82.12085 76.141022 82.09675 76.142822 C 81.990743 76.147122 81.885263 76.14954 81.780491 76.14954 L 89.48803 76.14954 A 9.9426503 12.677787 0 0 0 99.410939 64.043302 C 98.714795 61.397465 98.486448 59.02413 98.486448 58.31962 C 98.486448 57.559516 98.315316 56.89417 97.937127 56.368318 C 97.582568 55.875332 96.99749 55.523633 96.379083 55.502738 L 96.379599 55.502221 z M 99.41869 64.071724 C 99.465318 64.248217 99.514583 64.426055 99.565452 64.604508 C 99.514575 64.426009 99.465326 64.248256 99.41869 64.071724 z M 103.79568 72.2366 C 103.83684 72.272905 103.87848 72.308668 103.92022 72.344087 C 103.87848 72.308668 103.83685 72.272905 103.79568 72.2366 z M 104.02926 72.435038 C 104.08685 72.482252 104.14524 72.528548 104.20393 72.574047 C 104.14518 72.528505 104.08691 72.482298 104.02926 72.435038 z M 104.25147 72.610738 C 104.32354 72.66575 104.39634 72.719608 104.47006 72.771968 C 104.39633 72.719613 104.32354 72.665744 104.25147 72.610738 z M 104.51347 72.802974 C 104.59289 72.858556 104.67293 72.912822 104.75428 72.965238 C 104.67302 72.912883 104.5928 72.858488 104.51347 72.802974 z M 104.75428 72.965238 C 104.83637 73.018123 104.9198 73.06916 105.00388 73.118717 C 104.91968 73.069095 104.83648 73.018197 104.75428 72.965238 z M 105.04522 73.143005 C 105.12476 73.189184 105.20522 73.233729 105.28655 73.276847 C 105.20521 73.233734 105.12476 73.189179 105.04522 73.143005 z M 105.32324 73.296484 C 105.39758 73.335334 105.47271 73.372392 105.54855 73.408622 C 105.47276 73.372423 105.39752 73.335299 105.32324 73.296484 z M 105.6426 73.452547 C 105.70608 73.481712 105.77031 73.509997 105.83484 73.537296 C 105.77031 73.509999 105.70608 73.48171 105.6426 73.452547 z M 105.92785 73.575537 C 106.01342 73.610265 106.09934 73.643883 106.18675 73.675272 C 106.09939 73.643902 106.01337 73.610241 105.92785 73.575537 z M 106.18675 73.675272 C 106.28837 73.711764 106.39112 73.746256 106.49526 73.778108 C 106.39112 73.746256 106.28837 73.711764 106.18675 73.675272 z M 106.49526 73.778108 C 106.5994 73.809961 106.70484 73.839397 106.81152 73.866475 C 106.70484 73.839397 106.5994 73.809961 106.49526 73.778108 z M 106.81152 73.866475 C 106.9182 73.893553 107.02627 73.918205 107.13553 73.940372 C 107.02628 73.918205 106.9182 73.893553 106.81152 73.866475 z M 107.13553 73.940372 C 107.24191 73.961956 107.34966 73.980932 107.45851 73.997733 C 107.34951 73.980915 107.24206 73.961985 107.13553 73.940372 z M 107.68744 74.061812 A 1.0820598 1.0820598 0 0 1 107.74376 74.088167 A 1.0820598 1.0820598 0 0 0 107.68744 74.061812 z M 107.89156 74.169816 A 1.0820598 1.0820598 0 0 1 107.94789 74.21064 A 1.0820598 1.0820598 0 0 0 107.89156 74.169816 z M 108.07139 74.321228 A 1.0820598 1.0820598 0 0 1 108.1179 74.369803 A 1.0820598 1.0820598 0 0 0 108.07139 74.321228 z M 108.23314 74.535168 A 1.0820598 1.0820598 0 0 1 108.24709 74.556872 A 1.0820598 1.0820598 0 0 0 108.23314 74.535168 z M 108.33339 74.771329 A 1.0820598 1.0820598 0 0 1 108.34424 74.824556 A 1.0820598 1.0820598 0 0 0 108.33339 74.771329 z M 108.3706 74.994571 A 1.0820598 1.0820598 0 0 1 108.37163 75.071053 A 1.0820598 1.0820598 0 0 0 108.3706 74.994571 z M 108.35975 75.228666 A 1.0820598 1.0820598 0 0 1 108.34683 75.301529 A 1.0820598 1.0820598 0 0 0 108.35975 75.228666 z M 108.2967 75.462243 A 1.0820598 1.0820598 0 0 1 108.27551 75.519604 A 1.0820598 1.0820598 0 0 0 108.2967 75.462243 z M 108.16079 75.713391 A 1.0820598 1.0820598 0 0 1 108.1272 75.751631 A 1.0820598 1.0820598 0 0 0 108.16079 75.713391 z M 108.00421 75.880306 A 1.0820598 1.0820598 0 0 1 107.94427 75.926298 A 1.0820598 1.0820598 0 0 0 108.00421 75.880306 z M 107.81663 76.010013 A 1.0820598 1.0820598 0 0 1 107.74273 76.047737 A 1.0820598 1.0820598 0 0 0 107.81663 76.010013 z M 107.59752 76.100964 A 1.0820598 1.0820598 0 0 1 107.52776 76.121634 A 1.0820598 1.0820598 0 0 0 107.59752 76.100964 z " /><path
         id="path2174"
         style="color:#000000;fill:#f51459;fill-opacity:1;stroke-width:0.865561;stroke-linecap:round;stroke-linejoin:round;-inkscape-stroke:none;paint-order:fill markers stroke"
         d="m 99.411143,64.04291 a 9.9426503,12.677787 0 0 1 -9.923159,12.106381 h 17.815156 a 1.0820598,1.0820598 0 0 0 0.16416,-2.150126 c -3.57955,-0.547888 -5.81852,-3.714066 -7.19691,-7.276086 -0.344143,-0.889316 -0.627623,-1.7998 -0.859247,-2.680169 z" /><circle
         style="fill:#15a793;fill-opacity:1;stroke:none;stroke-width:2.1639;stroke-linecap:round;stroke-linejoin:round;stroke-dasharray:none;stroke-opacity:0.703159;paint-order:fill markers stroke"
         id="circle2176"
         cx="87.461426"
         cy="56.01202"
         r="3.3910644" /></g></g><g
     inkscape:groupmode="layer"
     id="layer5"
     inkscape:label="text"><g
       id="g2196"
       transform="matrix(1.3821686,0,0,1.3821686,-171.17355,93.758452)"
       style="fill:#5195a3;fill-opacity:1"><path
         d="m 152.84553,16.452284 v 2.056695 h 1.28058 v 1.121833 h -1.28058 v 5.259917 0 l 0.004,0.09878 0.004,0.09172 0.007,0.08819 0.0141,0.08467 0.0141,0.07761 0.0176,0.07408 0.0212,0.07056 0.0247,0.0635 0.0282,0.05644 0.0318,0.05644 v 0 l 0.0353,0.04939 0.0388,0.04233 0.0459,0.03881 0.0494,0.03528 0.0529,0.02822 0.06,0.02117 0.0635,0.02117 0.067,0.01058 0.0741,0.0071 0.0776,0.0035 v 0 h 0.0564 l 0.0529,-0.0035 0.0564,-0.0035 0.0564,-0.0071 0.0529,-0.01058 0.0564,-0.0071 0.0564,-0.01411 0.0564,-0.01411 0.0564,-0.01411 0.0564,-0.02117 -0.0176,1.178277 v 0 l -0.0917,0.02822 -0.0953,0.02822 -0.0952,0.02469 -0.0952,0.01764 -0.0988,0.01764 -0.0952,0.01411 -0.0988,0.01058 -0.0952,0.01058 -0.0988,0.0035 h -0.0988 v 0 l -0.16228,-0.0035 -0.1517,-0.01764 -0.14463,-0.03175 -0.13759,-0.03881 -0.13053,-0.05292 -0.11994,-0.06703 -0.11289,-0.07408 -0.10583,-0.08819 -0.0988,-0.102305 -0.0917,-0.109362 v 0 l -0.0811,-0.123472 -0.0734,-0.134055 -0.0646,-0.141111 -0.0561,-0.151695 -0.0459,-0.162278 -0.0388,-0.169333 -0.0317,-0.179917 -0.0212,-0.1905 -0.0141,-0.201083 -0.004,-0.211667 v -5.266936 h -1.29467 v -1.121833 h 1.2947 v -2.056695 z"
         style="fill:#5195a3;fill-opacity:1;fill-rule:nonzero;stroke:none;stroke-width:0.264583;stroke-linecap:round;stroke-linejoin:round;stroke-miterlimit:10"
         id="path2180" /><path
         d="m 157.26936,26.993284 h -1.38994 v -8.484305 h 1.38994 z m 0.10936,-10.735028 v 0 l -0.003,0.06703 -0.004,0.06703 -0.0106,0.06703 -0.0141,0.05997 -0.0176,0.05997 -0.0212,0.05997 -0.0247,0.05645 -0.0318,0.05292 -0.0317,0.04939 -0.0388,0.04939 v 0 l -0.0388,0.04233 -0.0459,0.04233 -0.0494,0.03528 -0.0529,0.02822 -0.06,0.02822 -0.06,0.02117 -0.067,0.01411 -0.067,0.01411 -0.0741,0.0071 h -0.0776 v 0 h -0.0776 l -0.0741,-0.0071 -0.067,-0.01411 -0.067,-0.01411 -0.06,-0.02117 -0.0564,-0.02822 -0.0529,-0.02822 -0.0494,-0.03528 -0.0459,-0.04233 -0.0388,-0.04233 v 0 l -0.0388,-0.04939 -0.0317,-0.04939 -0.0318,-0.05292 -0.0247,-0.05645 -0.0212,-0.05997 -0.0176,-0.05997 -0.0141,-0.05997 -0.0106,-0.06703 -0.004,-0.06703 -0.004,-0.06703 v 0 l 0.004,-0.07055 0.004,-0.06703 0.0106,-0.0635 0.0141,-0.0635 0.0176,-0.05997 0.0212,-0.05997 0.0247,-0.05644 0.0318,-0.05292 0.0317,-0.05292 0.0388,-0.04939 v 0 l 0.0388,-0.04586 0.0459,-0.04233 0.0494,-0.03528 0.0529,-0.03175 0.0564,-0.02822 0.06,-0.02117 0.067,-0.01764 0.067,-0.01058 0.0741,-0.0071 0.0776,-0.0035 v 0 l 0.0741,0.0035 0.0741,0.0071 0.067,0.01058 0.067,0.01764 0.06,0.02469 0.0564,0.02822 0.0529,0.03175 0.0494,0.03528 0.0459,0.04586 0.0388,0.04586 v 0 l 0.0388,0.04939 0.0353,0.05292 0.0317,0.05292 0.0247,0.05644 0.0247,0.05644 0.0176,0.05997 0.0141,0.0635 0.0106,0.0635 0.004,0.06703 z"
         style="fill:#5195a3;fill-opacity:1;fill-rule:nonzero;stroke:none;stroke-width:0.264583;stroke-linecap:round;stroke-linejoin:round;stroke-miterlimit:10"
         id="path2182" /><path
         d="m 160.75833,18.508979 0.0388,0.917222 v 0 l 0.16581,-0.204611 0.17639,-0.183444 0.18344,-0.15875 0.19403,-0.141111 0.20108,-0.119945 0.21167,-0.09525 0.21872,-0.07408 0.22931,-0.05644 0.23636,-0.03175 0.24694,-0.01058 v 0 l 0.42686,0.03175 0.38453,0.08819 0.33867,0.151695 0.29633,0.211667 0.25047,0.268111 0.20461,0.331611 0.16228,0.388055 0.11642,0.451556 0.0741,0.511528 0.0282,0.5715 v 5.637388 h -1.38289 v -5.577416 0 l -0.004,-0.1905 -0.007,-0.183445 -0.0176,-0.169333 -0.0247,-0.15875 -0.0282,-0.148167 -0.0388,-0.134055 -0.0423,-0.123472 -0.0529,-0.112889 -0.0564,-0.09878 -0.0635,-0.09172 v 0 l -0.0705,-0.07761 -0.0741,-0.07408 -0.0847,-0.0635 -0.0882,-0.05292 -0.0952,-0.04939 -0.10583,-0.03528 -0.10936,-0.03175 -0.11642,-0.02117 -0.12347,-0.01058 -0.127,-0.0071 v 0 l -0.10584,0.0035 -0.0988,0.01058 -0.0988,0.01764 -0.0953,0.0247 -0.0952,0.03175 -0.0917,0.0388 -0.0917,0.04233 -0.0882,0.05292 -0.0847,0.05997 -0.0847,0.0635 v 0 l -0.0811,0.07055 -0.0741,0.07761 -0.0741,0.07761 -0.0705,0.08467 -0.067,0.08819 -0.067,0.09172 -0.06,0.09525 -0.0564,0.102305 -0.0564,0.105834 -0.0529,0.109361 v 6.163027 h -1.38642 v -8.484305 z"
         style="fill:#5195a3;fill-opacity:1;fill-rule:nonzero;stroke:none;stroke-width:0.264583;stroke-linecap:round;stroke-linejoin:round;stroke-miterlimit:10"
         id="path2184" /><path
         d="m 169.5425,24.686118 1.54516,-6.177139 h 1.47462 l -2.77637,9.68375 v 0 l -0.067,0.211666 -0.0706,0.204612 -0.0741,0.1905 -0.0811,0.179916 -0.0882,0.172861 -0.0917,0.15875 -0.0952,0.151695 -0.1023,0.137583 -0.10584,0.130528 -0.11289,0.116417 v 0 l -0.11288,0.109361 -0.11995,0.09525 -0.12347,0.08819 -0.127,0.07408 -0.127,0.0635 -0.13053,0.04939 -0.13758,0.04233 -0.13759,0.02822 -0.14111,0.01764 -0.14464,0.0035 v 0 h -0.0564 l -0.06,-0.0035 -0.067,-0.0071 -0.067,-0.0071 -0.0705,-0.01411 -0.0741,-0.01058 -0.0741,-0.01764 -0.0811,-0.01764 -0.0847,-0.02117 -0.0847,-0.02469 v -1.178277 l 0.30691,0.03175 v 0 l 0.11642,-0.0035 0.11289,-0.0071 0.10936,-0.01411 0.0988,-0.02117 0.0988,-0.02469 0.0917,-0.03175 0.0847,-0.03881 0.0811,-0.04233 0.0741,-0.04939 0.0706,-0.05644 v 0 l 0.0706,-0.05997 0.0635,-0.07056 0.0635,-0.07761 0.06,-0.08467 0.0565,-0.09525 0.0529,-0.102305 0.0529,-0.112889 0.0494,-0.119945 0.0459,-0.127 0.0423,-0.137583 0.27517,-0.948972 -2.49414,-8.41375 h 1.51342 z"
         style="fill:#5195a3;fill-opacity:1;fill-rule:nonzero;stroke:none;stroke-width:0.264583;stroke-linecap:round;stroke-linejoin:round;stroke-miterlimit:10"
         id="path2186" /><path
         d="m 180.04116,23.15859 v 0 l -0.007,0.391583 -0.0212,0.373945 -0.0353,0.34925 -0.0529,0.331611 -0.067,0.310444 -0.0776,0.292806 -0.0952,0.268111 -0.10936,0.250472 -0.12347,0.225778 -0.14112,0.208139 v 0 l -0.14816,0.1905 -0.16228,0.165805 -0.17639,0.148167 -0.18697,0.130528 -0.19756,0.105833 -0.21166,0.09172 -0.22225,0.06703 -0.23284,0.04939 -0.24694,0.03175 -0.26106,0.0071 v 0 l -0.25047,-0.0071 -0.23636,-0.03175 -0.22578,-0.04586 -0.21519,-0.06703 -0.20109,-0.08819 -0.19402,-0.105834 -0.17639,-0.127 -0.16934,-0.144639 -0.15522,-0.162277 -0.14464,-0.183445 v 4.071056 h -1.37936 v -11.7475 h 1.25589 l 0.0706,0.941917 v 0 l 0.14464,-0.211667 0.15875,-0.186972 0.16933,-0.162278 0.17992,-0.144639 0.19402,-0.119944 0.20814,-0.09878 0.21872,-0.07761 0.22931,-0.05292 0.23989,-0.03528 0.25753,-0.01058 v 0 l 0.27164,0.01058 0.25752,0.02822 0.24342,0.04939 0.22931,0.06703 0.21519,0.08819 0.20108,0.109361 0.18698,0.123472 0.17638,0.148167 0.15875,0.165805 0.14464,0.183445 v 0 l 0.13053,0.204611 0.11995,0.22225 0.1023,0.243416 0.0917,0.261056 0.0776,0.282222 0.067,0.299861 0.0494,0.321028 0.0388,0.338667 0.0247,0.359833 0.0106,0.377472 z m -1.37936,-0.79375 v 0 l -0.004,-0.275167 -0.0141,-0.264583 -0.0212,-0.246944 -0.0317,-0.232834 -0.0388,-0.218722 -0.0494,-0.201083 -0.0564,-0.186973 -0.067,-0.172861 -0.0741,-0.15875 -0.0847,-0.141111 v 0 l -0.0917,-0.130527 -0.10231,-0.116417 -0.11641,-0.102306 -0.12348,-0.08819 -0.13758,-0.07408 -0.14464,-0.0635 -0.15875,-0.04586 -0.1658,-0.03528 -0.17992,-0.02117 -0.1905,-0.0071 v 0 l -0.19403,0.01058 -0.18344,0.03175 -0.17639,0.04939 -0.16581,0.06703 -0.15522,0.09172 -0.14817,0.109361 -0.13405,0.130528 -0.13053,0.148166 -0.11642,0.169333 -0.10936,0.1905 v 4.41325 0 l 0.10936,0.183445 0.11642,0.165805 0.127,0.148167 0.13758,0.123472 0.14817,0.109361 0.15875,0.08819 0.16581,0.06703 0.17991,0.04939 0.18698,0.02822 0.20108,0.01058 v 0 l 0.18344,-0.0071 0.17286,-0.02117 0.16228,-0.03175 0.1517,-0.04939 0.14464,-0.05997 0.13405,-0.07408 0.11995,-0.08819 0.11288,-0.102306 0.10584,-0.112889 0.0917,-0.126999 v 0 l 0.0847,-0.144639 0.0776,-0.15875 0.067,-0.172861 0.0564,-0.186973 0.0529,-0.197555 0.0388,-0.215195 0.0318,-0.229305 0.0247,-0.243417 0.0141,-0.257528 0.007,-0.275166 z"
         style="fill:#5195a3;fill-opacity:1;fill-rule:nonzero;stroke:none;stroke-width:0.264583;stroke-linecap:round;stroke-linejoin:round;stroke-miterlimit:10"
         id="path2188" /><path
         d="m 183.32905,26.993284 h -1.38994 V 14.949451 h 1.38994 z"
         style="fill:#5195a3;fill-opacity:1;fill-rule:nonzero;stroke:none;stroke-width:0.264583;stroke-linecap:round;stroke-linejoin:round;stroke-miterlimit:10"
         id="path2190" /><path
         d="m 185.21641,22.357784 v 0 l 0.0106,-0.363361 0.0247,-0.345722 0.0459,-0.331611 0.0635,-0.313972 0.0811,-0.299861 0.0953,-0.28575 0.11642,-0.268111 0.13405,-0.254 0.1517,-0.239889 0.17286,-0.22225 v 0 l 0.18344,-0.204611 0.19756,-0.183445 0.21167,-0.162278 0.21872,-0.141111 0.23283,-0.119944 0.24342,-0.09878 0.254,-0.07408 0.26458,-0.05292 0.2787,-0.03528 0.28927,-0.01058 v 0 l 0.28928,0.01058 0.2787,0.03175 0.26458,0.05292 0.254,0.07408 0.24342,0.09525 0.2293,0.116417 0.22225,0.134056 0.20814,0.15875 0.19403,0.179916 0.18344,0.197556 v 0 l 0.17286,0.218722 0.15523,0.232833 0.13405,0.246945 0.11995,0.264583 0.1023,0.278694 0.0847,0.292806 0.0635,0.310444 0.0494,0.324556 0.0318,0.338667 0.0141,0.356305 v 0.892528 0 l -0.0106,0.359833 -0.0247,0.345723 -0.0459,0.331611 -0.0635,0.313972 -0.0811,0.299861 -0.0953,0.282222 -0.11642,0.271639 -0.13405,0.250472 -0.15522,0.239889 -0.16934,0.22225 v 0 l -0.18344,0.204611 -0.19756,0.179917 -0.20814,0.162278 -0.21872,0.141111 -0.23283,0.116416 -0.24695,0.09878 -0.254,0.07408 -0.26811,0.05292 -0.28222,0.03175 -0.28928,0.01058 v 0 l -0.28927,-0.01058 -0.2787,-0.02822 -0.26458,-0.05292 -0.254,-0.07408 -0.24342,-0.09525 -0.23283,-0.112889 -0.21872,-0.134055 -0.20814,-0.15875 -0.19403,-0.176389 -0.18697,-0.197556 v 0 l -0.16934,-0.215194 -0.14816,-0.232834 -0.13759,-0.243416 -0.11641,-0.261056 -0.0988,-0.275166 -0.0847,-0.289278 -0.067,-0.306917 -0.0494,-0.3175 -0.0318,-0.335139 -0.0141,-0.34925 z m 1.38995,0.800806 v 0 l 0.004,0.257528 0.0141,0.243416 0.0282,0.232834 0.0353,0.225778 0.0459,0.211666 0.0564,0.201084 0.0635,0.186972 0.0776,0.179916 0.0882,0.165806 0.0952,0.15875 v 0 l 0.10583,0.141111 0.11642,0.127 0.11994,0.109361 0.13053,0.09878 0.13406,0.08114 0.14111,0.06703 0.15169,0.05292 0.15522,0.03528 0.16228,0.02469 0.17286,0.0071 v 0 l 0.34925,-0.02822 0.31045,-0.07761 0.27869,-0.134056 0.24342,-0.183444 0.20814,-0.239889 0.16933,-0.292806 0.13758,-0.342194 0.0988,-0.398639 0.0635,-0.451556 0.0282,-0.504472 v -0.956028 0 l -0.004,-0.254 -0.0176,-0.243416 -0.0247,-0.232834 -0.0353,-0.22225 -0.0459,-0.211666 -0.06,-0.201084 -0.067,-0.186972 -0.0776,-0.179916 -0.0882,-0.165806 -0.0952,-0.155222 v 0 l -0.10936,-0.144639 -0.11289,-0.130528 -0.11995,-0.112889 -0.13052,-0.09878 -0.13406,-0.08467 -0.14111,-0.06703 -0.15169,-0.05292 -0.15523,-0.0388 -0.1658,-0.02469 -0.16934,-0.0071 v 0 l -0.1658,0.0071 -0.16228,0.02469 -0.15522,0.0388 -0.14464,0.05292 -0.14111,0.06703 -0.13406,0.08467 -0.127,0.09878 -0.11994,0.112889 -0.11642,0.130528 -0.10583,0.144639 v 0 l -0.0952,0.155222 -0.0882,0.165806 -0.0776,0.179916 -0.0635,0.186972 -0.0564,0.201084 -0.0459,0.208139 -0.0353,0.22225 -0.0282,0.229305 -0.0141,0.243417 -0.004,0.254 z"
         style="fill:#5195a3;fill-opacity:1;fill-rule:nonzero;stroke:none;stroke-width:0.264583;stroke-linecap:round;stroke-linejoin:round;stroke-miterlimit:10"
         id="path2192" /><path
         d="m 195.387,16.452284 v 2.056695 h 1.28058 v 1.121833 H 195.387 v 5.259917 0 l 0.004,0.09878 0.004,0.09172 0.007,0.08819 0.0141,0.08467 0.0141,0.07761 0.0176,0.07408 0.0212,0.07056 0.0247,0.0635 0.0282,0.05644 0.0318,0.05644 v 0 l 0.0353,0.04939 0.0388,0.04233 0.0459,0.03881 0.0494,0.03528 0.0529,0.02822 0.06,0.02117 0.0635,0.02117 0.067,0.01058 0.0741,0.0071 0.0776,0.0035 v 0 h 0.0564 l 0.0529,-0.0035 0.0564,-0.0035 0.0565,-0.0071 0.0529,-0.01058 0.0565,-0.0071 0.0564,-0.01411 0.0565,-0.01411 0.0564,-0.01411 0.0564,-0.02117 -0.0176,1.178277 v 0 l -0.0917,0.02822 -0.0952,0.02822 -0.0952,0.02469 -0.0952,0.01764 -0.0988,0.01764 -0.0952,0.01411 -0.0988,0.01058 -0.0953,0.01058 -0.0988,0.0035 h -0.0988 v 0 l -0.16228,-0.0035 -0.15169,-0.01764 -0.14464,-0.03175 -0.13758,-0.03881 -0.13053,-0.05292 -0.11994,-0.06703 -0.11289,-0.07408 -0.10584,-0.08819 -0.0988,-0.102305 -0.0917,-0.109362 v 0 l -0.0811,-0.123472 -0.0741,-0.134055 -0.0635,-0.141111 -0.0564,-0.151695 -0.0459,-0.162278 -0.0388,-0.169333 -0.0317,-0.179917 -0.0212,-0.1905 -0.0141,-0.201083 -0.004,-0.211667 v -5.266936 h -1.2947 v -1.121833 h 1.2947 v -2.056695 z"
         style="fill:#5195a3;fill-opacity:1;fill-rule:nonzero;stroke:none;stroke-width:0.264583;stroke-linecap:round;stroke-linejoin:round;stroke-miterlimit:10"
         id="path2194" /></g></g></svg>
