<?xml version="1.0" encoding="UTF-8" standalone="no"?>
<!-- Created with Inkscape (http://www.inkscape.org/) -->

<svg
   width="132.29167mm"
   height="132.29167mm"
   viewBox="0 0 132.29168 132.29167"
   version="1.1"
   id="svg1"
   xmlns="http://www.w3.org/2000/svg"
   xmlns:svg="http://www.w3.org/2000/svg">
  <defs
     id="defs1" />
  <g
     id="layer1"
     transform="translate(-92.604166,-2.9104239)">
    <g
       id="g1587"
       transform="matrix(1.2499992,0,0,1.249995,-644.1782,-80.395584)">
      <rect
         style="fill:#fffaf0;fill-opacity:1;stroke-width:2.0556;stroke-linecap:round;stroke-linejoin:round;stroke-opacity:0.703159;paint-order:fill markers stroke"
         id="rect1128"
         width="105.83334"
         height="105.83334"
         x="589.42633"
         y="66.645073" />
      <circle
         style="display:inline;fill:#04546b;fill-opacity:1;stroke:none;stroke-width:25.883;stroke-linecap:round;stroke-dasharray:none;stroke-opacity:1;paint-order:fill markers stroke"
         id="circle1130"
         cx="601.34698"
         cy="126.62826"
         r="7.7879095" />
      <circle
         style="display:inline;fill:#f51459;fill-opacity:1;stroke:none;stroke-width:27.988;stroke-linecap:round;stroke-dasharray:none;stroke-opacity:1;paint-order:fill markers stroke"
         id="circle1132"
         cx="679.52435"
         cy="94.970009"
         r="8.4212685" />
      <circle
         style="display:inline;fill:#f51459;fill-opacity:1;stroke:none;stroke-width:21.9707;stroke-linecap:round;stroke-dasharray:none;stroke-opacity:1;paint-order:fill markers stroke"
         id="circle1134"
         cx="687.75018"
         cy="146.5229"
         r="6.6107702" />
      <circle
         style="display:inline;fill:#f51459;fill-opacity:1;stroke:none;stroke-width:21.9707;stroke-linecap:round;stroke-dasharray:none;stroke-opacity:1;paint-order:fill markers stroke"
         id="circle1136"
         cx="604.76318"
         cy="83.389282"
         r="6.6107702" />
      <circle
         style="display:inline;fill:#04546b;fill-opacity:1;stroke:none;stroke-width:21.8101;stroke-linecap:round;stroke-dasharray:none;stroke-opacity:1;paint-order:fill markers stroke"
         id="circle1138"
         cx="638.24048"
         cy="75.237457"
         r="6.5624499" />
      <path
         id="path1140"
         style="color:#000000;display:inline;fill:#04546b;fill-opacity:1;stroke-width:3.12085;stroke-linecap:round;stroke-linejoin:round;-inkscape-stroke:none;paint-order:fill markers stroke"
         d="m 655.28224,105.78584 c -0.14854,-0.004 -0.29731,-0.004 -0.447,0.001 -2.39211,0.0927 -4.52216,1.51488 -5.82084,3.43183 -1.29874,1.91689 -1.91926,4.32421 -1.91926,7.08226 -0.018,0.26646 -0.0404,0.52558 -0.0594,0.79013 -2.8e-4,0.003 2.7e-4,0.006 0,0.006 -0.25095,3.48773 -0.61288,6.7932 -1.06763,9.92343 -0.003,0.0218 -0.006,0.0459 -0.0119,0.0687 -0.001,0.0115 -0.003,0.0216 -0.006,0.0326 -0.0853,0.5859 -0.17628,1.16476 -0.2682,1.7384 -0.006,0.0325 -0.006,0.0651 -0.0145,0.0971 -0.003,0.0182 -0.006,0.0361 -0.0114,0.0543 -0.0966,0.59748 -0.19677,1.1872 -0.30024,1.77147 -0.10681,0.60185 -0.21578,1.19753 -0.3297,1.78542 a 43.078125,57.805772 0 0 1 -10e-4,0.006 c -3.04763,15.76058 -8.56006,26.52997 -14.08958,33.37419 a 43.078125,57.805772 0 0 1 -0.44907,0.54571 c -0.1301,0.15649 -0.26147,0.31585 -0.39171,0.46767 -0.23543,0.27475 -0.47228,0.54449 -0.71365,0.8108 -10e-4,0.001 -0.003,0.003 -0.005,0.004 -0.24049,0.26537 -0.48472,0.52769 -0.7307,0.78445 -10e-4,0.001 -0.005,6.5e-4 -0.006,0.005 -0.2477,0.25853 -0.49749,0.51418 -0.75086,0.7643 -0.1947,0.19218 -0.39284,0.37914 -0.59066,0.56637 -0.0563,0.0533 -0.11171,0.10924 -0.16795,0.16227 -0.003,0.003 -0.006,0.006 -0.0114,0.0114 -0.0798,0.0747 -0.16197,0.14571 -0.24237,0.21963 -0.17991,0.16512 -0.36008,0.33069 -0.54208,0.49196 -0.2578,0.22823 -0.51848,0.45431 -0.78083,0.67438 -0.005,0.005 -0.0115,0.006 -0.0145,0.0145 -0.26176,0.21923 -0.52574,0.43372 -0.79169,0.64492 -0.006,0.004 -0.0145,0.0115 -0.0217,0.0145 -0.1492,0.11835 -0.30009,0.23248 -0.4501,0.3483 h 26.07954 a 35.848895,45.710614 0 0 0 15.85072,-35.89135 c -2.50998,-9.53974 -3.33313,-18.09736 -3.33313,-20.6375 0,-2.74061 -0.61719,-5.13926 -1.98076,-7.03523 -1.27841,-1.77752 -3.38805,-3.04593 -5.61775,-3.12126 z m 10.95747,30.89785 c 0.16802,0.63637 0.3458,1.27792 0.52917,1.92133 -0.18353,-0.6436 -0.36101,-1.2848 -0.52917,-1.92133 z m 15.78198,29.43903 c 0.14854,0.13096 0.29805,0.25999 0.44855,0.38758 -0.15035,-0.12765 -0.30021,-0.25675 -0.44855,-0.38758 z m 0.84181,0.71572 c 0.2077,0.17018 0.41833,0.33719 0.62994,0.50126 -0.21201,-0.16405 -0.42206,-0.33068 -0.62994,-0.50126 z m 0.8015,0.63355 c 0.25996,0.19833 0.52227,0.39207 0.78807,0.58085 -0.26572,-0.18892 -0.52823,-0.38252 -0.78807,-0.58085 z m 2.86184,1.91875 c 0.28664,0.16656 0.57699,0.32711 0.87023,0.48266 -0.29313,-0.15541 -0.58345,-0.31632 -0.87023,-0.48266 z m 1.00253,0.55345 c 0.26788,0.13984 0.53889,0.27395 0.81235,0.40463 -0.2733,-0.13058 -0.54453,-0.26459 -0.81235,-0.40463 z m 1.15135,0.56276 c 0.22893,0.10541 0.46032,0.20699 0.69298,0.30541 -0.23256,-0.0984 -0.46411,-0.2005 -0.69298,-0.30541 z" />
      <path
         id="path1142"
         style="color:#000000;display:inline;fill:#f51459;fill-opacity:1;stroke-width:3.12085;stroke-linecap:round;stroke-linejoin:round;-inkscape-stroke:none;paint-order:fill markers stroke"
         d="m 666.21284,136.57982 a 35.848895,45.710614 0 0 1 -15.84503,35.89859 h 44.89183 v -5.2e-4 c -12.90628,-1.97548 -20.97894,-13.39151 -25.9488,-26.23457 -1.2408,-3.20653 -2.26287,-6.48927 -3.098,-9.6635 z" />
      <circle
         style="display:inline;fill:#15a793;fill-opacity:1;stroke:none;stroke-width:7.80208;stroke-linecap:round;stroke-linejoin:round;stroke-dasharray:none;stroke-opacity:0.703159;paint-order:fill markers stroke"
         id="circle1144"
         cx="623.1272"
         cy="107.62405"
         r="12.226712" />
      <path
         id="path1146"
         style="color:#000000;display:inline;fill:#15a793;fill-opacity:1;stroke-width:3.12085;stroke-linecap:round;stroke-linejoin:round;-inkscape-stroke:none;paint-order:fill markers stroke"
         d="m 655.28327,105.7848 -10e-4,10e-4 -0.001,0.001 c 0.27872,0.0115 0.55587,0.0367 0.82941,0.0817 -0.27293,-0.0451 -0.54925,-0.0743 -0.82734,-0.0837 z m 4.43746,1.83658 c 0.047,0.0411 0.0934,0.0824 0.13952,0.12454 -0.0461,-0.0426 -0.0923,-0.0834 -0.13952,-0.12454 z m -9.5865,0.26614 c -0.16045,0.15467 -0.31319,0.31794 -0.46044,0.48472 0.14748,-0.16694 0.29983,-0.32982 0.46044,-0.48472 z m -0.86816,0.97823 c -0.0876,0.11573 -0.17261,0.23429 -0.25373,0.35399 -0.0115,0.0179 -0.0217,0.0366 -0.0326,0.0543 0.0114,-0.018 0.0218,-0.0362 0.0362,-0.0543 0.0811,-0.11967 0.16404,-0.23824 0.25167,-0.35399 z m 12.83022,2.30839 c 0.0216,0.0544 0.0399,0.1095 0.0594,0.16433 -0.0181,-0.0549 -0.0391,-0.10988 -0.0594,-0.16433 z m 0.27544,0.84232 c 0.0181,0.0631 0.0364,0.12644 0.0527,0.19017 -0.0182,-0.0638 -0.0327,-0.12721 -0.0527,-0.19017 z m 0.21859,0.89814 c 0.0144,0.0682 0.0286,0.13634 0.0408,0.20516 -0.0144,-0.0689 -0.025,-0.13703 -0.0408,-0.20516 z m -15.21354,0.35605 c -0.0115,0.0598 -0.0213,0.12028 -0.032,0.18035 0.0115,-0.0605 0.0214,-0.12054 0.032,-0.18035 z m 15.47399,1.66191 c 0.0182,0.33172 0.0284,0.66923 0.0284,1.01183 0,0.63475 0.0528,1.64478 0.1695,2.95227 -0.11616,-1.30749 -0.16743,-2.31752 -0.16743,-2.95227 0,-0.34253 -0.0115,-0.68023 -0.0289,-1.01183 z m -15.72772,0.35244 c -0.004,0.0764 -0.003,0.1564 -0.007,0.23358 0.004,-0.0778 0.006,-0.15635 0.0109,-0.23358 z m -0.007,0.23358 c -0.008,0.18096 -0.0137,0.36356 -0.0155,0.54777 0.003,-0.18422 0.008,-0.3668 0.0155,-0.54777 z m -0.0155,0.54777 c -10e-4,0.0799 -0.007,0.15729 -0.007,0.23771 0,0.0115 -5.2e-4,0.0325 -5.2e-4,0.0429 10e-4,-0.0144 0.003,-0.0291 0.005,-0.045 0,-0.0792 0.002,-0.15704 0.003,-0.23564 z m -0.15038,2.14612 -0.006,0.007 c -0.19904,1.71463 -0.59593,4.04742 -1.17771,5.88077 -4.96126,15.38956 -9.67109,11.13958 -12.05301,10.1043 -0.0411,-0.0181 -0.082,-0.0364 -0.12454,-0.0527 -0.0432,-0.0182 -0.0873,-0.0377 -0.12919,-0.0543 l -5.2e-4,0.0119 c -0.45522,-0.16766 -0.99483,-0.27902 -1.66398,-0.2682 -1.98895,0.0325 -2.77501,0.98335 -3.29799,1.52394 -0.52299,0.54059 -0.84835,1.02023 -1.18339,1.54099 -0.66999,1.04146 -1.30382,2.24643 -2.04174,3.65197 -1.4758,2.81119 -3.3037,6.39183 -5.53403,9.91206 -4.46069,7.04043 -10.27315,13.18938 -17.01136,13.4152 -5.93888,0.19901 -7.78819,-1.55073 -9.86917,-3.84007 -1.04048,-1.14464 -1.99115,-2.51391 -3.38377,-3.89589 -0.0147,-0.0146 -0.0326,-0.0293 -0.0475,-0.0439 v 16.37316 h 34.8511 c 0.15179,-0.11712 0.30429,-0.23269 0.45527,-0.35244 0.006,-0.005 0.0146,-0.0115 0.0217,-0.0145 0.2661,-0.21128 0.52988,-0.42555 0.79168,-0.64492 0.005,-0.005 0.0115,-0.006 0.0145,-0.0139 0.26248,-0.21996 0.52288,-0.44663 0.78083,-0.6749 0.18208,-0.16116 0.36227,-0.32624 0.54208,-0.49144 0.0805,-0.074 0.16232,-0.14551 0.24237,-0.22014 0.004,-0.003 0.006,-0.006 0.0114,-0.0114 0.0563,-0.0526 0.11168,-0.10898 0.16794,-0.16226 0.19795,-0.18711 0.39593,-0.37405 0.59067,-0.56638 0.25347,-0.25022 0.50296,-0.50564 0.75085,-0.76429 10e-4,-0.001 0.004,-6.5e-4 0.006,-0.005 0.24591,-0.25671 0.48983,-0.51928 0.73018,-0.78445 9e-4,-0.001 0.004,-0.003 0.005,-0.004 0.24121,-0.26647 0.47829,-0.53551 0.71365,-0.81029 0.13024,-0.15178 0.26096,-0.31149 0.39119,-0.46767 a 43.078125,57.805772 0 0 0 0.44907,-0.54622 c 5.5295,-6.84419 11.04194,-17.6136 14.08958,-33.37419 a 43.078125,57.805772 0 0 0 10e-4,-0.006 c 0.11356,-0.5879 0.22296,-1.18354 0.3297,-1.78542 0.1035,-0.58424 0.20361,-1.17442 0.30024,-1.77198 0.003,-0.0181 0.006,-0.036 0.0114,-0.0538 0.006,-0.0325 0.006,-0.0654 0.0145,-0.0971 0.0918,-0.57361 0.18273,-1.1525 0.2682,-1.73839 0.003,-0.0115 0.004,-0.0217 0.006,-0.0326 0.003,-0.0216 0.006,-0.0459 0.0114,-0.0687 0.4054,-2.79069 0.73151,-5.73003 0.97617,-8.80411 z m 18.61126,15.75666 c 0.93717,3.95966 2.1618,8.17857 3.74706,12.27522 0.62104,1.60485 1.29254,3.18787 2.01383,4.73253 -0.72156,-1.54511 -1.39105,-3.12716 -2.01228,-4.73253 -1.58518,-4.09635 -2.81082,-8.31529 -3.74861,-12.27522 z" />
    </g>
  </g>
</svg>
