<?xml version="1.0" encoding="UTF-8" standalone="no"?>
<!-- Created with Inkscape (http://www.inkscape.org/) -->

<svg
   width="46.504028mm"
   height="15.469267mm"
   viewBox="0 0 46.504028 15.469267"
   version="1.1"
   id="svg4129"
   inkscape:version="1.2.2 (b0a8486541, 2022-12-01)"
   sodipodi:docname="tinyplot-navbar-logo.svg"
   xmlns:inkscape="http://www.inkscape.org/namespaces/inkscape"
   xmlns:sodipodi="http://sodipodi.sourceforge.net/DTD/sodipodi-0.dtd"
   xmlns="http://www.w3.org/2000/svg"
   xmlns:svg="http://www.w3.org/2000/svg">
  <sodipodi:namedview
     id="namedview4131"
     pagecolor="#ffffff"
     bordercolor="#000000"
     borderopacity="0.25"
     inkscape:showpageshadow="2"
     inkscape:pageopacity="0.0"
     inkscape:pagecheckerboard="0"
     inkscape:deskcolor="#d1d1d1"
     inkscape:document-units="mm"
     showgrid="false"
     inkscape:zoom="2.9718855"
     inkscape:cx="80.420325"
     inkscape:cy="59.221662"
     inkscape:window-width="1920"
     inkscape:window-height="1011"
     inkscape:window-x="0"
     inkscape:window-y="0"
     inkscape:window-maximized="1"
     inkscape:current-layer="layer1" />
  <defs
     id="defs4126" />
  <g
     inkscape:label="Layer 1"
     inkscape:groupmode="layer"
     id="layer1"
     transform="translate(-84.29518,-80.225779)">
    <path
       d="m 86.969236,81.728612 v 2.056695 h 1.280583 v 1.121833 h -1.280583 v 5.259917 0 l 0.0035,0.09878 0.0035,0.09172 0.0071,0.08819 0.01411,0.08467 0.01411,0.07761 0.01764,0.07408 0.02117,0.07056 0.02469,0.0635 0.02822,0.05644 0.03175,0.05644 v 0 l 0.03528,0.04939 0.03881,0.04233 0.04586,0.03881 0.04939,0.03528 0.05292,0.02822 0.05997,0.02117 0.0635,0.02117 0.06703,0.01058 0.07408,0.0071 0.07761,0.0035 v 0 h 0.05644 l 0.05292,-0.0035 0.05644,-0.0035 0.05644,-0.0071 0.05292,-0.01058 0.05644,-0.0071 0.05644,-0.01411 0.05644,-0.01411 0.05644,-0.01411 0.05644,-0.02117 -0.01764,1.178277 v 0 l -0.09172,0.02822 -0.09525,0.02822 -0.09525,0.02469 -0.09525,0.01764 -0.09878,0.01764 -0.09525,0.01411 -0.09878,0.01058 -0.09525,0.01058 -0.09878,0.0035 h -0.09878 v 0 l -0.162277,-0.0035 -0.151695,-0.01764 -0.144639,-0.03175 -0.137583,-0.03881 -0.130528,-0.05292 -0.119944,-0.06703 -0.112889,-0.07408 -0.105833,-0.08819 -0.09878,-0.102305 -0.09172,-0.109362 v 0 l -0.08114,-0.123472 -0.07338,-0.134055 -0.06456,-0.141111 -0.05609,-0.151695 -0.04586,-0.162278 -0.03881,-0.169333 -0.03175,-0.179917 -0.02117,-0.1905 -0.01411,-0.201083 -0.0035,-0.211667 V 84.90714 H 84.29518 v -1.121833 h 1.294695 v -2.056695 z"
       style="fill:#ffffff;fill-rule:nonzero;stroke:none;stroke-width:0.264583;stroke-linecap:round;stroke-linejoin:round;stroke-miterlimit:10"
       id="path3594" />
    <path
       d="m 91.393069,92.269612 h -1.389944 v -8.484305 h 1.389944 z M 91.50243,81.534584 v 0 l -0.0035,0.06703 -0.0035,0.06703 -0.01058,0.06703 -0.01411,0.05997 -0.01764,0.05997 -0.02117,0.05997 -0.0247,0.05645 -0.03175,0.05292 -0.03175,0.04939 -0.03881,0.04939 v 0 l -0.03881,0.04233 -0.04586,0.04233 -0.04939,0.03528 -0.05292,0.02822 -0.05997,0.02822 -0.05997,0.02117 -0.06703,0.01411 -0.06703,0.01411 -0.07408,0.0071 h -0.07761 v 0 h -0.07761 l -0.07408,-0.0071 -0.06703,-0.01411 -0.06703,-0.01411 -0.05997,-0.02117 -0.05644,-0.02822 -0.05292,-0.02822 -0.04939,-0.03528 -0.04586,-0.04233 -0.03881,-0.04233 v 0 l -0.03881,-0.04939 -0.03175,-0.04939 -0.03175,-0.05292 -0.02469,-0.05645 -0.02117,-0.05997 -0.01764,-0.05997 -0.01411,-0.05997 -0.01058,-0.06703 -0.0035,-0.06703 -0.0035,-0.06703 v 0 l 0.0035,-0.07055 0.0035,-0.06703 0.01058,-0.0635 0.01411,-0.0635 0.01764,-0.05997 0.02117,-0.05997 0.02469,-0.05644 0.03175,-0.05292 0.03175,-0.05292 0.03881,-0.04939 v 0 l 0.03881,-0.04586 0.04586,-0.04233 0.04939,-0.03528 0.05292,-0.03175 0.05644,-0.02822 0.05997,-0.02117 0.06703,-0.01764 0.06703,-0.01058 0.07408,-0.0071 0.07761,-0.0035 v 0 l 0.07408,0.0035 0.07408,0.0071 0.06703,0.01058 0.06703,0.01764 0.05997,0.02469 0.05645,0.02822 0.05292,0.03175 0.04939,0.03528 0.04586,0.04586 0.03881,0.04586 v 0 l 0.03881,0.04939 0.03528,0.05292 0.03175,0.05292 0.0247,0.05644 0.02469,0.05644 0.01764,0.05997 0.01411,0.0635 0.01058,0.0635 0.0035,0.06703 z"
       style="fill:#ffffff;fill-rule:nonzero;stroke:none;stroke-width:0.264583;stroke-linecap:round;stroke-linejoin:round;stroke-miterlimit:10"
       id="path3596" />
    <path
       d="m 94.882041,83.785307 0.03881,0.917222 v 0 l 0.165805,-0.204611 0.176389,-0.183444 0.183445,-0.15875 0.194027,-0.141111 0.201084,-0.119945 0.211666,-0.09525 0.218723,-0.07408 0.229305,-0.05644 0.236361,-0.03175 0.246945,-0.01058 v 0 l 0.426861,0.03175 0.384528,0.08819 0.338666,0.151695 0.296334,0.211667 0.250472,0.268111 0.204611,0.331611 0.162278,0.388055 0.116416,0.451556 0.07408,0.511528 0.02822,0.5715 v 5.637388 H 97.88418 v -5.577416 0 l -0.0035,-0.1905 -0.0071,-0.183445 -0.01764,-0.169333 -0.02469,-0.15875 -0.02822,-0.148167 -0.0388,-0.134055 -0.04233,-0.123472 -0.05292,-0.112889 -0.05645,-0.09878 -0.0635,-0.09172 v 0 l -0.07055,-0.07761 -0.07408,-0.07408 -0.08467,-0.0635 -0.08819,-0.05292 -0.09525,-0.04939 -0.105833,-0.03528 -0.109361,-0.03175 -0.116417,-0.02117 -0.123472,-0.01058 -0.127,-0.0071 v 0 l -0.105833,0.0035 -0.09878,0.01058 -0.09878,0.01764 -0.09525,0.0247 -0.09525,0.03175 -0.09172,0.0388 -0.09172,0.04233 -0.08819,0.05292 -0.08467,0.05997 -0.08467,0.0635 v 0 l -0.08114,0.07055 -0.07408,0.07761 -0.07408,0.07761 -0.07055,0.08467 -0.06703,0.08819 -0.06703,0.09172 -0.05997,0.09525 -0.05644,0.102305 -0.05644,0.105834 -0.05292,0.109361 v 6.163027 h -1.386416 v -8.484305 z"
       style="fill:#ffffff;fill-rule:nonzero;stroke:none;stroke-width:0.264583;stroke-linecap:round;stroke-linejoin:round;stroke-miterlimit:10"
       id="path3598" />
    <path
       d="m 103.66621,89.962446 1.54516,-6.177139 h 1.47462 l -2.77637,9.68375 v 0 l -0.067,0.211666 -0.0706,0.204612 -0.0741,0.1905 -0.0811,0.179916 -0.0882,0.172861 -0.0917,0.15875 -0.0952,0.151695 -0.1023,0.137583 -0.10584,0.130528 -0.11289,0.116417 v 0 l -0.11288,0.109361 -0.11995,0.09525 -0.12347,0.08819 -0.127,0.07408 -0.127,0.0635 -0.13053,0.04939 -0.13758,0.04233 -0.13759,0.02822 -0.14111,0.01764 -0.14464,0.0035 v 0 h -0.0564 l -0.06,-0.0035 -0.067,-0.0071 -0.067,-0.0071 -0.0705,-0.01411 -0.0741,-0.01058 -0.0741,-0.01764 -0.0811,-0.01764 -0.0847,-0.02117 -0.0847,-0.02469 v -1.178277 l 0.30691,0.03175 v 0 l 0.11642,-0.0035 0.11289,-0.0071 0.10936,-0.01411 0.0988,-0.02117 0.0988,-0.02469 0.0917,-0.03175 0.0847,-0.03881 0.0811,-0.04233 0.0741,-0.04939 0.0706,-0.05644 v 0 l 0.0706,-0.05997 0.0635,-0.07056 0.0635,-0.07761 0.06,-0.08467 0.0565,-0.09525 0.0529,-0.102305 0.0529,-0.112889 0.0494,-0.119945 0.0459,-0.127 0.0423,-0.137583 0.27517,-0.948972 -2.49414,-8.41375 h 1.51342 z"
       style="fill:#ffffff;fill-rule:nonzero;stroke:none;stroke-width:0.264583;stroke-linecap:round;stroke-linejoin:round;stroke-miterlimit:10"
       id="path3600" />
    <path
       d="m 114.16487,88.434918 v 0 l -0.007,0.391583 -0.0212,0.373945 -0.0353,0.34925 -0.0529,0.331611 -0.067,0.310444 -0.0776,0.292806 -0.0952,0.268111 -0.10936,0.250472 -0.12347,0.225778 -0.14112,0.208139 v 0 l -0.14816,0.1905 -0.16228,0.165805 -0.17639,0.148167 -0.18697,0.130528 -0.19756,0.105833 -0.21166,0.09172 -0.22225,0.06703 -0.23284,0.04939 -0.24694,0.03175 -0.26106,0.0071 v 0 l -0.25047,-0.0071 -0.23636,-0.03175 -0.22578,-0.04586 -0.21519,-0.06703 -0.20109,-0.08819 -0.19402,-0.105834 -0.17639,-0.127 -0.16934,-0.144639 -0.15522,-0.162277 -0.14464,-0.183445 v 4.071056 h -1.37936 v -11.7475 h 1.25589 l 0.0706,0.941917 v 0 l 0.14464,-0.211667 0.15875,-0.186972 0.16933,-0.162278 0.17992,-0.144639 0.19402,-0.119944 0.20814,-0.09878 0.21872,-0.07761 0.22931,-0.05292 0.23989,-0.03528 0.25753,-0.01058 v 0 l 0.27164,0.01058 0.25752,0.02822 0.24342,0.04939 0.22931,0.06703 0.21519,0.08819 0.20108,0.109361 0.18698,0.123472 0.17638,0.148167 0.15875,0.165805 0.14464,0.183445 v 0 l 0.13053,0.204611 0.11995,0.22225 0.1023,0.243416 0.0917,0.261056 0.0776,0.282222 0.067,0.299861 0.0494,0.321028 0.0388,0.338667 0.0247,0.359833 0.0106,0.377472 z m -1.37936,-0.79375 v 0 l -0.004,-0.275167 -0.0141,-0.264583 -0.0212,-0.246944 -0.0317,-0.232834 -0.0388,-0.218722 -0.0494,-0.201083 -0.0564,-0.186973 -0.067,-0.172861 -0.0741,-0.15875 -0.0847,-0.141111 v 0 l -0.0917,-0.130527 -0.10231,-0.116417 -0.11641,-0.102306 -0.12348,-0.08819 -0.13758,-0.07408 -0.14464,-0.0635 -0.15875,-0.04586 -0.1658,-0.03528 -0.17992,-0.02117 -0.1905,-0.0071 v 0 l -0.19403,0.01058 -0.18344,0.03175 -0.17639,0.04939 -0.16581,0.06703 -0.15522,0.09172 -0.14817,0.109361 -0.13405,0.130528 -0.13053,0.148166 -0.11642,0.169333 -0.10936,0.1905 v 4.41325 0 l 0.10936,0.183445 0.11642,0.165805 0.127,0.148167 0.13758,0.123472 0.14817,0.109361 0.15875,0.08819 0.16581,0.06703 0.17991,0.04939 0.18698,0.02822 0.20108,0.01058 v 0 l 0.18344,-0.0071 0.17286,-0.02117 0.16228,-0.03175 0.1517,-0.04939 0.14464,-0.05997 0.13405,-0.07408 0.11995,-0.08819 0.11288,-0.102306 0.10584,-0.112889 0.0917,-0.126999 v 0 l 0.0847,-0.144639 0.0776,-0.15875 0.067,-0.172861 0.0564,-0.186973 0.0529,-0.197555 0.0388,-0.215195 0.0318,-0.229305 0.0247,-0.243417 0.0141,-0.257528 0.007,-0.275166 z"
       style="fill:#ffffff;fill-rule:nonzero;stroke:none;stroke-width:0.264583;stroke-linecap:round;stroke-linejoin:round;stroke-miterlimit:10"
       id="path3602" />
    <path
       d="m 117.45276,92.269612 h -1.38994 V 80.225779 h 1.38994 z"
       style="fill:#ffffff;fill-rule:nonzero;stroke:none;stroke-width:0.264583;stroke-linecap:round;stroke-linejoin:round;stroke-miterlimit:10"
       id="path3604" />
    <path
       d="m 119.34012,87.634112 v 0 l 0.0106,-0.363361 0.0247,-0.345722 0.0459,-0.331611 0.0635,-0.313972 0.0811,-0.299861 0.0953,-0.28575 0.11642,-0.268111 0.13405,-0.254 0.1517,-0.239889 0.17286,-0.22225 v 0 l 0.18344,-0.204611 0.19756,-0.183445 0.21167,-0.162278 0.21872,-0.141111 0.23283,-0.119944 0.24342,-0.09878 0.254,-0.07408 0.26458,-0.05292 0.2787,-0.03528 0.28927,-0.01058 v 0 l 0.28928,0.01058 0.2787,0.03175 0.26458,0.05292 0.254,0.07408 0.24342,0.09525 0.2293,0.116417 0.22225,0.134056 0.20814,0.15875 0.19403,0.179916 0.18344,0.197556 v 0 l 0.17286,0.218722 0.15523,0.232833 0.13405,0.246945 0.11995,0.264583 0.1023,0.278694 0.0847,0.292806 0.0635,0.310444 0.0494,0.324556 0.0318,0.338667 0.0141,0.356305 v 0.892528 0 l -0.0106,0.359833 -0.0247,0.345723 -0.0459,0.331611 -0.0635,0.313972 -0.0811,0.299861 -0.0953,0.282222 -0.11642,0.271639 -0.13405,0.250472 -0.15522,0.239889 -0.16934,0.22225 v 0 l -0.18344,0.204611 -0.19756,0.179917 -0.20814,0.162278 -0.21872,0.141111 -0.23283,0.116416 -0.24695,0.09878 -0.254,0.07408 -0.26811,0.05292 -0.28222,0.03175 -0.28928,0.01058 v 0 l -0.28927,-0.01058 -0.2787,-0.02822 -0.26458,-0.05292 -0.254,-0.07408 -0.24342,-0.09525 -0.23283,-0.112889 -0.21872,-0.134055 -0.20814,-0.15875 -0.19403,-0.176389 -0.18697,-0.197556 v 0 l -0.16934,-0.215194 -0.14816,-0.232834 -0.13759,-0.243416 -0.11641,-0.261056 -0.0988,-0.275166 -0.0847,-0.289278 -0.067,-0.306917 -0.0494,-0.3175 -0.0318,-0.335139 -0.0141,-0.34925 z m 1.38995,0.800806 v 0 l 0.004,0.257528 0.0141,0.243416 0.0282,0.232834 0.0353,0.225778 0.0459,0.211666 0.0564,0.201084 0.0635,0.186972 0.0776,0.179916 0.0882,0.165806 0.0952,0.15875 v 0 l 0.10583,0.141111 0.11642,0.127 0.11994,0.109361 0.13053,0.09878 0.13406,0.08114 0.14111,0.06703 0.15169,0.05292 0.15522,0.03528 0.16228,0.02469 0.17286,0.0071 v 0 l 0.34925,-0.02822 0.31045,-0.07761 0.27869,-0.134056 0.24342,-0.183444 0.20814,-0.239889 0.16933,-0.292806 0.13758,-0.342194 0.0988,-0.398639 0.0635,-0.451556 0.0282,-0.504472 v -0.956028 0 l -0.004,-0.254 -0.0176,-0.243416 -0.0247,-0.232834 -0.0353,-0.22225 -0.0459,-0.211666 -0.06,-0.201084 -0.067,-0.186972 -0.0776,-0.179916 -0.0882,-0.165806 -0.0952,-0.155222 v 0 l -0.10936,-0.144639 -0.11289,-0.130528 -0.11995,-0.112889 -0.13052,-0.09878 -0.13406,-0.08467 -0.14111,-0.06703 -0.15169,-0.05292 -0.15523,-0.0388 -0.1658,-0.02469 -0.16934,-0.0071 v 0 l -0.1658,0.0071 -0.16228,0.02469 -0.15522,0.0388 -0.14464,0.05292 -0.14111,0.06703 -0.13406,0.08467 -0.127,0.09878 -0.11994,0.112889 -0.11642,0.130528 -0.10583,0.144639 v 0 l -0.0952,0.155222 -0.0882,0.165806 -0.0776,0.179916 -0.0635,0.186972 -0.0564,0.201084 -0.0459,0.208139 -0.0353,0.22225 -0.0282,0.229305 -0.0141,0.243417 -0.004,0.254 z"
       style="fill:#ffffff;fill-rule:nonzero;stroke:none;stroke-width:0.264583;stroke-linecap:round;stroke-linejoin:round;stroke-miterlimit:10"
       id="path3606" />
    <path
       d="m 129.51071,81.728612 v 2.056695 h 1.28058 v 1.121833 h -1.28058 v 5.259917 0 l 0.004,0.09878 0.004,0.09172 0.007,0.08819 0.0141,0.08467 0.0141,0.07761 0.0176,0.07408 0.0212,0.07056 0.0247,0.0635 0.0282,0.05644 0.0318,0.05644 v 0 l 0.0353,0.04939 0.0388,0.04233 0.0459,0.03881 0.0494,0.03528 0.0529,0.02822 0.06,0.02117 0.0635,0.02117 0.067,0.01058 0.0741,0.0071 0.0776,0.0035 v 0 h 0.0564 l 0.0529,-0.0035 0.0564,-0.0035 0.0565,-0.0071 0.0529,-0.01058 0.0565,-0.0071 0.0564,-0.01411 0.0565,-0.01411 0.0564,-0.01411 0.0564,-0.02117 -0.0176,1.178277 v 0 l -0.0917,0.02822 -0.0952,0.02822 -0.0952,0.02469 -0.0952,0.01764 -0.0988,0.01764 -0.0952,0.01411 -0.0988,0.01058 -0.0953,0.01058 -0.0988,0.0035 h -0.0988 v 0 l -0.16228,-0.0035 -0.15169,-0.01764 -0.14464,-0.03175 -0.13758,-0.03881 -0.13053,-0.05292 -0.11994,-0.06703 -0.11289,-0.07408 -0.10584,-0.08819 -0.0988,-0.102305 -0.0917,-0.109362 v 0 l -0.0811,-0.123472 -0.0741,-0.134055 -0.0635,-0.141111 -0.0564,-0.151695 -0.0459,-0.162278 -0.0388,-0.169333 -0.0317,-0.179917 -0.0212,-0.1905 -0.0141,-0.201083 -0.004,-0.211667 V 84.90714 h -1.2947 v -1.121833 h 1.2947 v -2.056695 z"
       style="fill:#ffffff;fill-rule:nonzero;stroke:none;stroke-width:0.264583;stroke-linecap:round;stroke-linejoin:round;stroke-miterlimit:10"
       id="path3608" />
  </g>
</svg>
